# xmcd CD database file
#
# Track frame offsets:
#	150
#	8386
#	21641
#	38179
#	48266
#	63261
#	75524
#	88634
#	103099
#	112764
#
# Disc length: 1703 seconds
#
# Revision: 0
# Processed by: cddbd v1.5.2PL0 Copyright (c) Steve Scherf et al.
# Submitted via: CDex 1.51
#
DISCID=6b06a50a
DTITLE=Sons of the San Joaquin - Songs of the Silver Screen
DYEAR=1993
DGENRE=Country
TTITLE0=Cowboy Jubilee
TTITLE1=Song of the Bandit
TTITLE2=Ridin' the Range With You
TTITLE3=Cherokee Strip
TTITLE4=Empty Saddles
TTITLE5=Yippi-Yo Your Troubles Away
TTITLE6=Round up Time Is Over
TTITLE7=Down Where the Rio Flows
TTITLE8=Headin' for the Home Corral
TTITLE9=He's Ridin' Home
EXTD=YEAR: 1993
EXTT0=
EXTT1=
EXTT2=
EXTT3=
EXTT4=
EXTT5=
EXTT6=
EXTT7=
EXTT8=
EXTT9=
PLAYORDER=
